<?xml version="1.0" encoding="iso-8859-1"?>
<!-- Generator: Adobe Illustrator 22.1.0, SVG Export Plug-In . SVG Version: 6.00 Build 0)  -->
<svg version="1.1" id="&#x421;&#x43B;&#x43E;&#x439;_2_1_"
	 xmlns="http://www.w3.org/2000/svg" xmlns:xlink="http://www.w3.org/1999/xlink" x="0px" y="0px" viewBox="0 0 226.772 93.543"
	 style="enable-background:new 0 0 226.772 93.543;" xml:space="preserve">
<g>
	<g>
		<path style="fill:#E31E24;" d="M20.323,42.965c19.023,0,37.946,0,56.969,0c4.305,0,4.405-6.987,0-7.091
			c-19.023,0-37.946,0-56.969,0C16.017,35.979,16.017,42.965,20.323,42.965L20.323,42.965z"/>
	</g>
</g>
<g>
	<g>
		<path style="fill:#E31E24;" d="M15.216,33.997c4.405,14.912,8.811,29.72,13.316,44.632c1.302,4.275,7.809,2.503,6.508-1.877
			C30.635,61.84,26.23,47.032,21.724,32.12C20.423,27.845,13.915,29.722,15.216,33.997L15.216,33.997z"/>
	</g>
</g>
<g>
	<g>
		<path style="fill:#E31E24;" d="M3.302,36.604c5.106,0,10.112,0,15.219,0c4.305,0,4.405-7.091,0-7.091c-5.106,0-10.112,0-15.219,0
			C-1.104,29.618-1.104,36.604,3.302,36.604L3.302,36.604z"/>
	</g>
</g>
<g>
	<g>
		<path style="fill:#E31E24;" d="M23.727,54.228c17.221,0.104,34.442,0.104,51.563,0.209c4.305,0,4.305-6.987,0-7.091
			c-17.221-0.104-34.442-0.104-51.563-0.209C19.321,47.241,19.321,54.228,23.727,54.228L23.727,54.228z"/>
	</g>
</g>
<g>
	<g>
		<path style="fill:#E31E24;" d="M27.131,65.594c15.319,0,30.537,0,45.856,0c4.305,0,4.405-7.091,0-7.091
			c-15.319,0-30.537,0-45.856,0C22.725,58.503,22.725,65.594,27.131,65.594L27.131,65.594z"/>
	</g>
</g>
<g>
	<g>
		<path style="fill:#E31E24;" d="M31.937,81.132c13.116,0,26.232,0,39.248,0c4.305,0,4.405-6.987,0-7.091
			c-13.116,0-26.232,0-39.248,0C27.631,74.145,27.631,81.132,31.937,81.132L31.937,81.132z"/>
	</g>
</g>
<g>
	<g>
		<path style="fill:#E31E24;" d="M74.589,38.586c-1.602,7.508-3.204,15.121-4.806,22.629c-0.901,4.38,5.607,6.257,6.508,1.877
			c1.602-7.508,3.204-15.121,4.806-22.629C81.998,35.979,75.49,34.102,74.589,38.586L74.589,38.586z"/>
	</g>
</g>
<ellipse style="fill:#E31E24;" cx="64.576" cy="88.64" rx="4.706" ry="4.901"/>
<ellipse style="fill:#E31E24;" cx="36.042" cy="88.64" rx="4.706" ry="4.901"/>
<path style="fill:#232323;" d="M74.489,34.102c0.701-2.398,1.001-4.901,1.001-7.508c0-14.704-11.414-26.591-25.531-26.591
	S24.428,11.89,24.428,26.593c0,2.607,0.401,5.11,1.001,7.508H74.489z"/>
<path style="fill:#FFFFFF;" d="M70.684,34.102c0.601-2.19,1.001-4.38,1.001-6.778c0-12.722-9.712-23.046-21.626-23.046
	S28.432,14.601,28.432,27.323c0,2.398,0.3,4.693,1.001,6.778H70.684z"/>
<path style="fill:#E31E24;" d="M61.973,34.102c0.3-1.251,0.501-2.503,0.501-3.858c0-7.3-5.407-13.139-12.215-13.139
	c-6.708,0-12.215,5.84-12.215,13.139c0,1.356,0.2,2.607,0.501,3.858H61.973z"/>
<g>
	<path style="fill:#E31E24;" d="M109.932,12.828c0.901,0.521,1.602,1.147,2.103,1.981s0.801,1.773,0.801,2.92
		c0,1.147-0.3,2.086-0.901,3.024c-0.601,0.834-1.302,1.564-2.303,1.981c1.302,0.417,2.403,1.043,3.204,2.086
		s1.201,2.294,1.201,3.754c0,1.356-0.3,2.503-0.801,3.546c-0.501,1.043-1.302,1.877-2.303,2.398
		c-1.001,0.626-2.103,0.834-3.404,0.834h-7.209c-0.3,0-0.601-0.104-0.801-0.209c-0.2-0.104-0.3-0.417-0.3-0.626V13.037
		c0-0.313,0.1-0.521,0.2-0.626c0.2-0.209,0.401-0.209,0.601-0.209h7.009C108.129,12.098,109.131,12.307,109.932,12.828z
		 M110.032,20.754c0.801-0.73,1.101-1.773,1.101-3.024s-0.401-2.19-1.101-2.816c-0.801-0.626-1.802-1.043-3.004-1.043h-6.208v8.03
		h6.208C108.33,21.901,109.231,21.588,110.032,20.754z M110.032,32.955c0.701-0.417,1.302-1.043,1.702-1.773
		c0.401-0.73,0.601-1.564,0.601-2.607c0-0.939-0.2-1.773-0.601-2.503c-0.401-0.73-1.001-1.356-1.702-1.773s-1.602-0.626-2.503-0.626
		h-6.608v9.907h6.608C108.43,33.58,109.231,33.372,110.032,32.955z"/>
	<path style="fill:#E31E24;" d="M135.062,14.497c0.2,0.104,0.3,0.313,0.3,0.626c0,0.209-0.1,0.417-0.2,0.626
		c-0.2,0.209-0.401,0.313-0.601,0.313c-0.2,0-0.401-0.104-0.701-0.313c-1.502-1.356-3.404-1.981-5.807-1.981
		c-1.702,0-3.204,0.417-4.706,1.356c-1.502,0.939-2.603,2.19-3.504,3.754c-0.901,1.564-1.302,3.233-1.302,5.005
		c0,1.877,0.401,3.546,1.302,5.11c0.801,1.564,2.002,2.816,3.504,3.754c1.502,0.939,3.004,1.356,4.706,1.356
		c2.303,0,4.205-0.73,5.907-2.19c0.1-0.104,0.3-0.104,0.401-0.104c0.2,0,0.401,0.104,0.601,0.313c0.2,0.209,0.3,0.417,0.3,0.626
		c0,0.209-0.1,0.417-0.2,0.626c-1.602,1.668-4.005,2.607-7.009,2.607c-2.002,0-3.905-0.521-5.607-1.668
		c-1.702-1.043-3.104-2.503-4.105-4.38c-1.001-1.877-1.502-3.858-1.502-5.944s0.501-4.067,1.502-5.944s2.403-3.337,4.105-4.38
		c1.702-1.043,3.604-1.668,5.607-1.668C130.657,11.786,133.06,12.724,135.062,14.497z"/>
	<path style="fill:#E31E24;" d="M155.187,33.893c0.2,0.209,0.3,0.417,0.3,0.626c0,0.209-0.1,0.521-0.3,0.626
		c-0.2,0.209-0.401,0.209-0.601,0.209h-13.817c-0.2,0-0.501-0.104-0.601-0.209c-0.2-0.209-0.2-0.417-0.2-0.626V13.037
		c0-0.209,0.1-0.521,0.2-0.626c0.2-0.209,0.401-0.209,0.601-0.209h13.817c0.2,0,0.401,0.104,0.601,0.209
		c0.2,0.209,0.3,0.417,0.3,0.626s-0.1,0.417-0.3,0.626c-0.2,0.209-0.401,0.313-0.601,0.313H141.67v8.968h9.512
		c0.2,0,0.501,0.104,0.601,0.209s0.2,0.417,0.2,0.626c0,0.209-0.1,0.521-0.2,0.626c-0.2,0.209-0.401,0.313-0.601,0.313h-9.512v8.968
		h12.916C154.786,33.58,154.986,33.684,155.187,33.893z"/>
	<path style="fill:#E31E24;" d="M187.827,34.519v4.901c0,0.626-0.3,0.939-0.901,0.939c-0.601,0-0.901-0.313-0.901-0.939v-4.067
		h-18.623v4.067c0,0.626-0.3,0.939-0.901,0.939s-0.901-0.313-0.901-0.939v-4.901c0-0.626,0.3-0.939,0.901-0.939h1.001l8.21-20.856
		c0.2-0.417,0.401-0.626,0.801-0.626c0.401,0,0.701,0.209,0.801,0.626l8.21,20.856h1.201
		C187.626,33.58,187.827,33.893,187.827,34.519z M169.504,33.58h14.518l-7.309-18.666L169.504,33.58z"/>
	<path style="fill:#E31E24;" d="M208.352,34.519c0,0.209-0.1,0.417-0.3,0.626c-0.2,0.209-0.401,0.313-0.601,0.313
		c-0.401,0-0.601-0.209-0.801-0.521l-8.01-19.813l-7.91,19.813c-0.1,0.417-0.401,0.521-0.801,0.521c-0.3,0-0.501-0.104-0.601-0.313
		c-0.2-0.209-0.2-0.417-0.2-0.626c0-0.104,0-0.313,0.1-0.417l8.711-21.377c0.2-0.417,0.401-0.626,0.801-0.626
		s0.701,0.209,0.801,0.626l8.711,21.377C208.352,34.206,208.352,34.414,208.352,34.519z"/>
	<path style="fill:#E31E24;" d="M225.072,12.307c0.2,0.209,0.2,0.417,0.2,0.626v21.482c0,0.209-0.1,0.521-0.2,0.626
		c-0.2,0.209-0.401,0.209-0.601,0.209s-0.501-0.104-0.601-0.209c-0.2-0.209-0.2-0.417-0.2-0.626v-8.342h-5.507l-5.507,8.76
		c-0.1,0.209-0.2,0.313-0.3,0.313s-0.3,0.104-0.501,0.104c-0.3,0-0.501-0.104-0.701-0.209c-0.2-0.104-0.2-0.313-0.2-0.521
		s0.1-0.417,0.2-0.73l5.206-8.342c-1.001-0.209-1.902-0.626-2.703-1.251c-0.801-0.626-1.502-1.356-1.902-2.294
		c-0.501-0.939-0.701-1.981-0.701-3.024c0-1.356,0.3-2.607,0.901-3.65s1.502-1.877,2.503-2.503c1.001-0.626,2.303-0.939,3.704-0.939
		h6.308C224.671,12.098,224.872,12.203,225.072,12.307z M223.57,13.871h-5.507c-1.001,0-2.002,0.209-2.803,0.626
		c-0.801,0.417-1.502,1.043-1.902,1.877c-0.501,0.834-0.701,1.668-0.701,2.711s0.2,1.877,0.701,2.711
		c0.501,0.834,1.101,1.46,1.902,1.877c0.801,0.417,1.802,0.626,2.803,0.626h5.507V13.871z"/>
</g>
<g>
	<path style="fill:#FFFFFF;" d="M126.452,47.032c0.3,0.209,0.501,0.626,0.501,1.043c0,0.417-0.1,0.834-0.401,1.147
		c-0.3,0.313-0.601,0.521-1.101,0.521c-0.401,0-0.801-0.209-1.302-0.626c-2.603-2.398-6.007-3.65-10.212-3.65
		c-3.004,0-5.807,0.834-8.41,2.503c-2.603,1.668-4.606,3.858-6.208,6.674c-1.502,2.816-2.303,5.735-2.303,8.864
		c0,3.233,0.801,6.257,2.303,9.072c1.502,2.816,3.604,5.005,6.107,6.57c2.603,1.668,5.407,2.398,8.41,2.398
		c4.005,0,7.509-1.251,10.513-3.858c0.2-0.209,0.501-0.313,0.801-0.313c0.401,0,0.801,0.209,1.101,0.521s0.501,0.73,0.501,1.147
		s-0.1,0.834-0.401,1.147c-2.904,3.024-7.109,4.588-12.515,4.588c-3.604,0-6.908-0.939-9.912-2.92
		c-3.004-1.981-5.507-4.484-7.309-7.821c-1.802-3.233-2.703-6.778-2.703-10.532s0.901-7.3,2.703-10.532
		c1.802-3.233,4.205-5.84,7.209-7.717c3.004-1.877,6.408-2.92,10.012-2.92C118.642,42.34,122.847,43.904,126.452,47.032z"/>
	<path style="fill:#FFFFFF;" d="M162.996,44.425c0,0.104-0.1,0.417-0.2,0.834l-14.117,31.91c-1.001,2.398-2.403,4.275-4.005,5.631
		c-1.602,1.356-3.304,1.981-5.106,1.981c-1.602,0-3.104-0.626-4.606-1.773c-0.401-0.313-0.601-0.73-0.601-1.147
		c0-0.417,0.2-0.73,0.501-1.147c0.3-0.417,0.701-0.521,1.101-0.521c0.3,0,0.701,0.104,1.101,0.417
		c0.401,0.313,0.901,0.521,1.201,0.73c0.401,0.104,0.901,0.209,1.402,0.209c1.101,0,2.203-0.521,3.304-1.46
		c1.101-1.043,2.103-2.398,2.904-4.171l0.601-1.251l-16.32-29.198c-0.2-0.313-0.3-0.626-0.3-0.939c0-0.521,0.3-0.939,0.801-1.251
		c0.3-0.209,0.601-0.313,0.901-0.313c0.501,0,0.901,0.313,1.201,0.939l15.018,27.634l12.115-27.53
		c0.3-0.626,0.801-1.043,1.302-1.043c0.1,0,0.401,0.104,0.801,0.209C162.596,43.383,162.996,43.8,162.996,44.425z"/>
	<path style="fill:#FFFFFF;" d="M210.955,43.383c0.3-0.313,0.701-0.417,1.101-0.417s0.801,0.104,1.101,0.417
		c0.3,0.313,0.501,0.73,0.501,1.147v38.167c0,0.417-0.2,0.834-0.501,1.147s-0.701,0.417-1.101,0.417h-39.648
		c-0.401,0-0.801-0.104-1.101-0.417c-0.3-0.313-0.401-0.73-0.401-1.147V44.53c0-0.417,0.1-0.834,0.401-1.147
		c0.3-0.313,0.701-0.417,1.101-0.417s0.801,0.104,1.101,0.417c0.3,0.313,0.4,0.73,0.4,1.147v36.915h16.821V44.53
		c0-0.417,0.1-0.834,0.401-1.147s0.701-0.417,1.101-0.417c0.4,0,0.801,0.104,1.101,0.417c0.3,0.313,0.401,0.73,0.401,1.147v36.915
		h16.821V44.53C210.454,44.008,210.654,43.695,210.955,43.383z"/>
	<path style="fill:#FFFFFF;" d="M224.171,43.383c0.3-0.313,0.701-0.417,1.101-0.417s0.801,0.104,1.101,0.417
		c0.3,0.313,0.401,0.73,0.401,1.147v38.167c0,0.417-0.1,0.834-0.401,1.147s-0.701,0.417-1.101,0.417s-0.801-0.104-1.101-0.417
		c-0.3-0.313-0.401-0.73-0.401-1.147V44.53C223.67,44.008,223.87,43.695,224.171,43.383z"/>
</g>
</svg>
