<?xml version="1.0" encoding="utf-8"?>
<!-- Generator: Adobe Illustrator 22.1.0, SVG Export Plug-In . SVG Version: 6.00 Build 0)  -->
<svg version="1.1" id="Слой_2_1_" xmlns="http://www.w3.org/2000/svg" xmlns:xlink="http://www.w3.org/1999/xlink" x="0px"
	 y="0px" viewBox="0 0 226.8 93.5" style="enable-background:new 0 0 226.8 93.5;" xml:space="preserve">
<style type="text/css">
	.st0{fill:#E31E24;}
	.st1{fill:#232323;}
	.st2{fill:#FFFFFF;}
	.st3{fill:#231F20;}
</style>
<g>
	<g>
		<path class="st0" d="M20.3,43c19,0,37.9,0,57,0c4.3,0,4.4-7,0-7.1c-19,0-37.9,0-57,0C16,36,16,43,20.3,43L20.3,43z"/>
	</g>
</g>
<g>
	<g>
		<path class="st0" d="M15.2,34c4.4,14.9,8.8,29.7,13.3,44.6c1.3,4.3,7.8,2.5,6.5-1.9C30.6,61.8,26.2,47,21.7,32.1
			C20.4,27.8,13.9,29.7,15.2,34L15.2,34z"/>
	</g>
</g>
<g>
	<g>
		<path class="st0" d="M3.3,36.6c5.1,0,10.1,0,15.2,0c4.3,0,4.4-7.1,0-7.1c-5.1,0-10.1,0-15.2,0C-1.1,29.6-1.1,36.6,3.3,36.6
			L3.3,36.6z"/>
	</g>
</g>
<g>
	<g>
		<path class="st0" d="M23.7,54.2c17.2,0.1,34.4,0.1,51.6,0.2c4.3,0,4.3-7,0-7.1c-17.2-0.1-34.4-0.1-51.6-0.2
			C19.3,47.2,19.3,54.2,23.7,54.2L23.7,54.2z"/>
	</g>
</g>
<g>
	<g>
		<path class="st0" d="M27.1,65.6c15.3,0,30.5,0,45.9,0c4.3,0,4.4-7.1,0-7.1c-15.3,0-30.5,0-45.9,0C22.7,58.5,22.7,65.6,27.1,65.6
			L27.1,65.6z"/>
	</g>
</g>
<g>
	<g>
		<path class="st0" d="M31.9,81.1c13.1,0,26.2,0,39.2,0c4.3,0,4.4-7,0-7.1c-13.1,0-26.2,0-39.2,0C27.6,74.1,27.6,81.1,31.9,81.1
			L31.9,81.1z"/>
	</g>
</g>
<g>
	<g>
		<path class="st0" d="M74.6,38.6c-1.6,7.5-3.2,15.1-4.8,22.6c-0.9,4.4,5.6,6.3,6.5,1.9c1.6-7.5,3.2-15.1,4.8-22.6
			C82,36,75.5,34.1,74.6,38.6L74.6,38.6z"/>
	</g>
</g>
<ellipse class="st0" cx="64.6" cy="88.6" rx="4.7" ry="4.9"/>
<ellipse class="st0" cx="36" cy="88.6" rx="4.7" ry="4.9"/>
<path class="st1" d="M74.5,34.1c0.7-2.4,1-4.9,1-7.5C75.5,11.9,64.1,0,50,0S24.4,11.9,24.4,26.6c0,2.6,0.4,5.1,1,7.5L74.5,34.1
	L74.5,34.1z"/>
<path class="st2" d="M70.7,34.1c0.6-2.2,1-4.4,1-6.8c0-12.7-9.7-23-21.6-23s-21.6,10.3-21.6,23c0,2.4,0.3,4.7,1,6.8L70.7,34.1
	L70.7,34.1z"/>
<path class="st0" d="M62,34.1c0.3-1.3,0.5-2.5,0.5-3.9c0-7.3-5.4-13.1-12.2-13.1c-6.7,0-12.2,5.8-12.2,13.1c0,1.4,0.2,2.6,0.5,3.9
	H62z"/>
<g>
	<path class="st0" d="M109.9,12.8c0.9,0.5,1.6,1.1,2.1,2s0.8,1.8,0.8,2.9s-0.3,2.1-0.9,3c-0.6,0.8-1.3,1.6-2.3,2
		c1.3,0.4,2.4,1,3.2,2.1s1.2,2.3,1.2,3.8c0,1.4-0.3,2.5-0.8,3.5c-0.5,1-1.3,1.9-2.3,2.4c-1,0.6-2.1,0.8-3.4,0.8h-7.2
		c-0.3,0-0.6-0.1-0.8-0.2c-0.2-0.1-0.3-0.4-0.3-0.6V13c0-0.3,0.1-0.5,0.2-0.6c0.2-0.2,0.4-0.2,0.6-0.2h7
		C108.1,12.1,109.1,12.3,109.9,12.8z M110,20.8c0.8-0.7,1.1-1.8,1.1-3s-0.4-2.2-1.1-2.8c-0.8-0.6-1.8-1-3-1h-6.2v8h6.2
		C108.3,21.9,109.2,21.6,110,20.8z M110,33c0.7-0.4,1.3-1,1.7-1.8c0.4-0.7,0.6-1.6,0.6-2.6c0-0.9-0.2-1.8-0.6-2.5s-1-1.4-1.7-1.8
		s-1.6-0.6-2.5-0.6h-6.6v9.9h6.6C108.4,33.6,109.2,33.4,110,33z"/>
	<path class="st0" d="M135.1,14.5c0.2,0.1,0.3,0.3,0.3,0.6c0,0.2-0.1,0.4-0.2,0.6c-0.2,0.2-0.4,0.3-0.6,0.3s-0.4-0.1-0.7-0.3
		c-1.5-1.4-3.4-2-5.8-2c-1.7,0-3.2,0.4-4.7,1.4c-1.5,0.9-2.6,2.2-3.5,3.8s-1.3,3.2-1.3,5c0,1.9,0.4,3.5,1.3,5.1
		c0.8,1.6,2,2.8,3.5,3.8c1.5,0.9,3,1.4,4.7,1.4c2.3,0,4.2-0.7,5.9-2.2c0.1-0.1,0.3-0.1,0.4-0.1c0.2,0,0.4,0.1,0.6,0.3
		c0.2,0.2,0.3,0.4,0.3,0.6s-0.1,0.4-0.2,0.6c-1.6,1.7-4,2.6-7,2.6c-2,0-3.9-0.5-5.6-1.7c-1.7-1-3.1-2.5-4.1-4.4
		c-1-1.9-1.5-3.9-1.5-5.9s0.5-4.1,1.5-5.9s2.4-3.3,4.1-4.4s3.6-1.7,5.6-1.7C130.7,11.8,133.1,12.7,135.1,14.5z"/>
	<path class="st0" d="M155.2,33.9c0.2,0.2,0.3,0.4,0.3,0.6s-0.1,0.5-0.3,0.6c-0.2,0.2-0.4,0.2-0.6,0.2h-13.8c-0.2,0-0.5-0.1-0.6-0.2
		c-0.2-0.2-0.2-0.4-0.2-0.6V13c0-0.2,0.1-0.5,0.2-0.6c0.2-0.2,0.4-0.2,0.6-0.2h13.8c0.2,0,0.4,0.1,0.6,0.2c0.2,0.2,0.3,0.4,0.3,0.6
		s-0.1,0.4-0.3,0.6c-0.2,0.2-0.4,0.3-0.6,0.3h-12.9v9h9.5c0.2,0,0.5,0.1,0.6,0.2s0.2,0.4,0.2,0.6s-0.1,0.5-0.2,0.6
		c-0.2,0.2-0.4,0.3-0.6,0.3h-9.5v9h12.9C154.8,33.6,155,33.7,155.2,33.9z"/>
	<path class="st0" d="M187.8,34.5v4.9c0,0.6-0.3,0.9-0.9,0.9S186,40,186,39.4v-4.1h-18.6v4.1c0,0.6-0.3,0.9-0.9,0.9
		s-0.9-0.3-0.9-0.9v-4.9c0-0.6,0.3-0.9,0.9-0.9h1l8.2-20.9c0.2-0.4,0.4-0.6,0.8-0.6c0.4,0,0.7,0.2,0.8,0.6l8.2,20.9h1.2
		C187.6,33.6,187.8,33.9,187.8,34.5z M169.5,33.6H184l-7.3-18.7L169.5,33.6z"/>
	<path class="st0" d="M208.4,34.5c0,0.2-0.1,0.4-0.3,0.6s-0.4,0.3-0.6,0.3c-0.4,0-0.6-0.2-0.8-0.5l-8-19.8l-7.9,19.8
		c-0.1,0.4-0.4,0.5-0.8,0.5c-0.3,0-0.5-0.1-0.6-0.3c-0.2-0.2-0.2-0.4-0.2-0.6c0-0.1,0-0.3,0.1-0.4l8.7-21.4c0.2-0.4,0.4-0.6,0.8-0.6
		s0.7,0.2,0.8,0.6l8.7,21.4C208.4,34.2,208.4,34.4,208.4,34.5z"/>
	<path class="st0" d="M225.1,12.3c0.2,0.2,0.2,0.4,0.2,0.6v21.5c0,0.2-0.1,0.5-0.2,0.6c-0.2,0.2-0.4,0.2-0.6,0.2s-0.5-0.1-0.6-0.2
		c-0.2-0.2-0.2-0.4-0.2-0.6v-8.3h-5.5l-5.5,8.8c-0.1,0.2-0.2,0.3-0.3,0.3s-0.3,0.1-0.5,0.1c-0.3,0-0.5-0.1-0.7-0.2
		c-0.2-0.1-0.2-0.3-0.2-0.5s0.1-0.4,0.2-0.7l5.2-8.3c-1-0.2-1.9-0.6-2.7-1.3c-0.8-0.6-1.5-1.4-1.9-2.3c-0.5-0.9-0.7-2-0.7-3
		c0-1.4,0.3-2.6,0.9-3.6s1.5-1.9,2.5-2.5s2.3-0.9,3.7-0.9h6.3C224.7,12.1,224.9,12.2,225.1,12.3z M223.6,13.9h-5.5
		c-1,0-2,0.2-2.8,0.6c-0.8,0.4-1.5,1-1.9,1.9c-0.5,0.8-0.7,1.7-0.7,2.7s0.2,1.9,0.7,2.7s1.1,1.5,1.9,1.9c0.8,0.4,1.8,0.6,2.8,0.6
		h5.5V13.9z"/>
</g>
<g>
	<path class="st3" d="M126.5,47c0.3,0.2,0.5,0.6,0.5,1s-0.1,0.8-0.4,1.1c-0.3,0.3-0.6,0.5-1.1,0.5c-0.4,0-0.8-0.2-1.3-0.6
		c-2.6-2.4-6-3.7-10.2-3.7c-3,0-5.8,0.8-8.4,2.5c-2.6,1.7-4.6,3.9-6.2,6.7c-1.5,2.8-2.3,5.7-2.3,8.9c0,3.2,0.8,6.3,2.3,9.1
		c1.5,2.8,3.6,5,6.1,6.6c2.6,1.7,5.4,2.4,8.4,2.4c4,0,7.5-1.3,10.5-3.9c0.2-0.2,0.5-0.3,0.8-0.3c0.4,0,0.8,0.2,1.1,0.5
		s0.5,0.7,0.5,1.1s-0.1,0.8-0.4,1.1c-2.9,3-7.1,4.6-12.5,4.6c-3.6,0-6.9-0.9-9.9-2.9c-3-2-5.5-4.5-7.3-7.8
		c-1.8-3.2-2.7-6.8-2.7-10.5s0.9-7.3,2.7-10.5c1.8-3.2,4.2-5.8,7.2-7.7s6.4-2.9,10-2.9C118.6,42.3,122.8,43.9,126.5,47z"/>
	<path class="st3" d="M163,44.4c0,0.1-0.1,0.4-0.2,0.8l-14.1,31.9c-1,2.4-2.4,4.3-4,5.6c-1.6,1.4-3.3,2-5.1,2
		c-1.6,0-3.1-0.6-4.6-1.8c-0.4-0.3-0.6-0.7-0.6-1.1s0.2-0.7,0.5-1.1c0.3-0.4,0.7-0.5,1.1-0.5c0.3,0,0.7,0.1,1.1,0.4
		c0.4,0.3,0.9,0.5,1.2,0.7c0.4,0.1,0.9,0.2,1.4,0.2c1.1,0,2.2-0.5,3.3-1.5c1.1-1,2.1-2.4,2.9-4.2l0.6-1.3l-16.3-29.2
		c-0.2-0.3-0.3-0.6-0.3-0.9c0-0.5,0.3-0.9,0.8-1.3c0.3-0.2,0.6-0.3,0.9-0.3c0.5,0,0.9,0.3,1.2,0.9l15,27.6L159.9,44
		c0.3-0.6,0.8-1,1.3-1c0.1,0,0.4,0.1,0.8,0.2C162.6,43.4,163,43.8,163,44.4z"/>
	<path class="st3" d="M211,43.4c0.3-0.3,0.7-0.4,1.1-0.4s0.8,0.1,1.1,0.4s0.5,0.7,0.5,1.1v38.2c0,0.4-0.2,0.8-0.5,1.1
		s-0.7,0.4-1.1,0.4h-39.6c-0.4,0-0.8-0.1-1.1-0.4s-0.4-0.7-0.4-1.1V44.5c0-0.4,0.1-0.8,0.4-1.1c0.3-0.3,0.7-0.4,1.1-0.4
		s0.8,0.1,1.1,0.4s0.4,0.7,0.4,1.1v36.9h16.8V44.5c0-0.4,0.1-0.8,0.4-1.1s0.7-0.4,1.1-0.4s0.8,0.1,1.1,0.4s0.4,0.7,0.4,1.1v36.9
		h16.8V44.5C210.5,44,210.7,43.7,211,43.4z"/>
	<path class="st3" d="M224.2,43.4c0.3-0.3,0.7-0.4,1.1-0.4s0.8,0.1,1.1,0.4s0.4,0.7,0.4,1.1v38.2c0,0.4-0.1,0.8-0.4,1.1
		s-0.7,0.4-1.1,0.4s-0.8-0.1-1.1-0.4s-0.4-0.7-0.4-1.1V44.5C223.7,44,223.9,43.7,224.2,43.4z"/>
</g>
</svg>
